<mxfile host="app.diagrams.net" modified="2021-12-29T06:28:30.879Z" agent="5.0 (Windows NT 10.0; Win64; x64) AppleWebKit/537.36 (KHTML, like Gecko) Chrome/96.0.4664.110 Safari/537.36" etag="IE_ye6dEQfkDmlUUE_0G" version="16.0.0" type="github">
  <diagram id="9dY1EHkdnRahCLDG-iGY" name="Page-1">
    <mxGraphModel dx="1422" dy="794" grid="1" gridSize="10" guides="1" tooltips="1" connect="1" arrows="1" fold="1" page="1" pageScale="1" pageWidth="827" pageHeight="1169" math="0" shadow="0">
      <root>
        <mxCell id="0" />
        <mxCell id="1" parent="0" />
        <mxCell id="YVZG80lTzyRvKH9mx4MC-3" value="" style="edgeStyle=orthogonalEdgeStyle;rounded=0;orthogonalLoop=1;jettySize=auto;html=1;exitX=1;exitY=0.25;exitDx=0;exitDy=0;" edge="1" parent="1" source="YVZG80lTzyRvKH9mx4MC-1">
          <mxGeometry relative="1" as="geometry">
            <mxPoint x="400" y="290" as="targetPoint" />
          </mxGeometry>
        </mxCell>
        <mxCell id="YVZG80lTzyRvKH9mx4MC-1" value="클라이언트" style="rounded=0;whiteSpace=wrap;html=1;fillColor=#ffe6cc;strokeColor=#d79b00;" vertex="1" parent="1">
          <mxGeometry x="80" y="280" width="120" height="40" as="geometry" />
        </mxCell>
        <mxCell id="YVZG80lTzyRvKH9mx4MC-4" style="edgeStyle=orthogonalEdgeStyle;rounded=0;orthogonalLoop=1;jettySize=auto;html=1;exitX=0;exitY=0.75;exitDx=0;exitDy=0;entryX=1;entryY=0.75;entryDx=0;entryDy=0;" edge="1" parent="1" source="YVZG80lTzyRvKH9mx4MC-2" target="YVZG80lTzyRvKH9mx4MC-1">
          <mxGeometry relative="1" as="geometry" />
        </mxCell>
        <mxCell id="YVZG80lTzyRvKH9mx4MC-2" value="서버" style="rounded=0;whiteSpace=wrap;html=1;fillColor=#fff2cc;strokeColor=#d6b656;" vertex="1" parent="1">
          <mxGeometry x="400" y="280" width="120" height="40" as="geometry" />
        </mxCell>
        <mxCell id="YVZG80lTzyRvKH9mx4MC-5" value="재다운로드 요청&lt;br&gt;GET /abc.jpg HTTP /1.1&lt;br&gt;Host www.abc.kr&lt;br&gt;Range: bytes = 5001-10000" style="text;html=1;align=left;verticalAlign=middle;resizable=0;points=[];autosize=1;strokeColor=none;fillColor=none;" vertex="1" parent="1">
          <mxGeometry x="210" y="230" width="160" height="60" as="geometry" />
        </mxCell>
        <mxCell id="YVZG80lTzyRvKH9mx4MC-6" value="HTTP/ 1.1 206 Partial Content&lt;br&gt;Date: Wed, 29 Dec 2021 14:27:17 GMT&lt;br&gt;Content-Range: bytes 5001-10000/10000&lt;br&gt;Content-Length: 5000&lt;br&gt;Content-Type: image/jpeg" style="text;html=1;align=left;verticalAlign=middle;resizable=0;points=[];autosize=1;strokeColor=none;fillColor=none;" vertex="1" parent="1">
          <mxGeometry x="210" y="320" width="240" height="80" as="geometry" />
        </mxCell>
      </root>
    </mxGraphModel>
  </diagram>
</mxfile>
